<svg id="Camada_1" data-name="Camada 1" xmlns="http://www.w3.org/2000/svg" xmlns:xlink="http://www.w3.org/1999/xlink" viewBox="0 0 256 256"><defs><style>.cls-1{fill:#020a19;}.cls-2{fill:url(#Gradiente_sem_nome_5);}.cls-3{fill:url(#Gradiente_sem_nome_5-2);}.cls-4{fill:url(#Gradiente_sem_nome_5-3);}.cls-5{fill:url(#Gradiente_sem_nome_5-4);}.cls-6{fill:url(#Gradiente_sem_nome_5-5);}.cls-7{fill:#fff;}</style><linearGradient id="Gradiente_sem_nome_5" x1="-35.7" y1="42.21" x2="414.36" y2="177.87" gradientUnits="userSpaceOnUse"><stop offset="0" stop-color="#0bd3f8"/><stop offset="1" stop-color="#c50ce9"/></linearGradient><linearGradient id="Gradiente_sem_nome_5-2" x1="-164.08" y1="95.07" x2="207.87" y2="207.19" xlink:href="#Gradiente_sem_nome_5"/><linearGradient id="Gradiente_sem_nome_5-3" x1="-160.51" y1="83.22" x2="211.45" y2="195.34" xlink:href="#Gradiente_sem_nome_5"/><linearGradient id="Gradiente_sem_nome_5-4" x1="-157.47" y1="73.14" x2="214.48" y2="185.26" xlink:href="#Gradiente_sem_nome_5"/><linearGradient id="Gradiente_sem_nome_5-5" x1="-153" y1="58.31" x2="218.95" y2="170.43" xlink:href="#Gradiente_sem_nome_5"/></defs><rect class="cls-1" width="256" height="256" rx="25.51"/><path class="cls-2" d="M115.83,93.81c-2.76,5.15-2.09,10.14,1.22,14.7a13.65,13.65,0,0,0,15.26,4.75,12.54,12.54,0,0,0,9.23-10.9c1-7-3-12.16-6.72-17.89-2.24,3.28-4.08,6.19-5.52,8.5,1.12,1.88,2,3.62,3,5.4a4,4,0,0,1,.16,3.43,4.54,4.54,0,0,1-7.69,1.84,3.08,3.08,0,0,1-.89-1.59c-.69-3.2.88-5.67,2.33-8.2,4.93-8.62,9.77-17.29,14.74-25.9,2.84-4.91,5.57-9.92,8.84-14.54a11.61,11.61,0,0,1,20,1c10.19,17.79,20.42,35.56,30.39,53.47,2.91,5.24,2.64,9.2-.42,12.78-5.6,6.56-14.43,5.71-19-1.65-6.85-11-12.9-22.41-19.74-33.4a86.57,86.57,0,0,1-5.53-9.47,5.67,5.67,0,0,1,1.61-7,3.45,3.45,0,0,1,5,.32,5.65,5.65,0,0,1,.88,6.71,39.33,39.33,0,0,1-2,3.62c1.38,2.73,3,5.28,5.25,9.23,1.76-3,3.28-5.71,4.93-8.34,1.85-3,2.15-6.22,1.89-9.58q-.68-8.62-10.85-11.62c-4.23-1.26-10.87,1-13.54,4.63-3.55,4.88-4.27,10-1.28,15.51,2.24,4.12,4.94,8,6.47,12.52-2.62,4.62-5.22,9.19-7.8,13.75-2.42,4.14-4.86,8.26-7.28,12.4-5.4,9.25-16.17,9.24-21.56-.08-5-8.6-9.83-17.26-14.82-26,1.53-4.49,4.23-8.4,6.47-12.52,3-5.52,2.27-10.63-1.28-15.51-2.67-3.67-9.31-5.89-13.54-4.63q-10.17,3-10.85,11.62c-.26,3.36,0,6.61,1.89,9.58,1.65,2.64,3.17,5.35,4.93,8.34,2.29-4,3.87-6.49,5.25-9.23a39.33,39.33,0,0,1-2-3.62A5.66,5.66,0,0,1,94,69.52,3.45,3.45,0,0,1,99,69.2a5.67,5.67,0,0,1,1.61,7,86.57,86.57,0,0,1-5.53,9.47c-6.84,11-12.89,22.43-19.74,33.4-4.6,7.36-13.43,8.21-19,1.65-3.06-3.58-3.33-7.54-.42-12.78,10-17.91,20.2-35.68,30.39-53.47a11.61,11.61,0,0,1,20-1c3.27,4.62,6,9.63,8.84,14.55q3.35,5.78,6.62,11.6c1.55-3.2,3.16-6.35,5-9.41-4.29-7.43-8.2-14.16-12.05-20.93a20.66,20.66,0,0,0-36.11.67C74.83,56.55,70.9,63,67.09,69.56Q57,86.92,46.82,104.28c-6.49,11.14.49,25.17,10.26,28.83,9.29,3.49,18.88,1,24.83-7,4.42-6,7.76-12.6,11.28-19.12,1-1.75,2.36-3.5,3.63-5.37A8.26,8.26,0,0,1,97.89,103c3.81,6.54,7.86,13,11.3,19.69,3.85,7.56,10.18,11.56,18.1,11.75s14.53-3.35,18.68-10.75q3-5.25,6-10.43s0,0,0,0c2-3.45,4.1-6.87,6.11-10.32a8.72,8.72,0,0,1,1.07-1.4c1.27,1.88,2.68,3.63,3.63,5.38,3.52,6.51,6.86,13.15,11.28,19.12,5.95,8,15.54,10.51,24.83,7,9.77-3.66,16.75-17.69,10.26-28.83q-10.11-17.39-20.27-34.72c-3.81-6.54-7.74-13-11.4-19.64a20.66,20.66,0,0,0-36.11-.67c-4.2,7.39-8.48,14.73-13.24,23C128.16,72.21,118.06,89.66,115.83,93.81Z"/><path class="cls-3" d="M83.05,144.39v38.68H76.14V158.43l-6.79,5.19L63.71,168l-5.63-4.37-6.8-5.19v24.64h-6.9V144.39l6.9,5.31,12.43,9.56,12.43-9.56Z"/><path class="cls-4" d="M125.93,163.73a19.34,19.34,0,1,1-19.34-19.34A19.37,19.37,0,0,1,125.93,163.73Zm-6.91,0a12.43,12.43,0,1,0-12.43,12.43A12.45,12.45,0,0,0,119,163.73Z"/><path class="cls-5" d="M168.8,170.75a12.33,12.33,0,0,1-12.32,12.32H130.13V144.39h24.36a10.48,10.48,0,0,1,10.45,10.45,10.21,10.21,0,0,1-1.66,5.63A12.34,12.34,0,0,1,168.8,170.75ZM137,158.37h17.52a3.54,3.54,0,0,0,0-7.07H137Zm19.45,17.74a5.42,5.42,0,1,0,0-10.83H137v10.88h19.45Z"/><path class="cls-6" d="M179.86,154.84v3.59h24.86v6.9H179.86v7.3a3.56,3.56,0,0,0,3.53,3.53h28.23v6.91H183.39A10.43,10.43,0,0,1,173,172.63V154.84a10.43,10.43,0,0,1,10.39-10.45h28.23v6.91H183.39A3.56,3.56,0,0,0,179.86,154.84Z"/><path class="cls-7" d="M104.8,197.22v3.55H96.66v16.3H93.12v-16.3H85v-3.55Z"/><path class="cls-7" d="M111.2,202.55v1.85H124v3.54H111.2v3.74A1.84,1.84,0,0,0,113,213.5H127.5V217H113a5.35,5.35,0,0,1-5.33-5.36v-9.13A5.35,5.35,0,0,1,113,197.2H127.5v3.54H113A1.83,1.83,0,0,0,111.2,202.55Z"/><path class="cls-7" d="M132,207.12a6.39,6.39,0,0,0,6.38,6.38h9.92V217h-9.92a9.92,9.92,0,1,1,0-19.84h9.92v3.54h-9.92A6.38,6.38,0,0,0,132,207.12Z"/><path class="cls-7" d="M171,197.2V217h-3.54v-9.1H154.72V217h-3.54V197.2h3.54v7.2h12.76v-7.2Z"/></svg>